<?xml version="1.0" encoding="UTF-8" standalone="no"?>
<!-- Created with Inkscape (http://www.inkscape.org/) -->

<svg
   xmlns:dc="http://purl.org/dc/elements/1.1/"
   xmlns:cc="http://creativecommons.org/ns#"
   xmlns:rdf="http://www.w3.org/1999/02/22-rdf-syntax-ns#"
   xmlns:svg="http://www.w3.org/2000/svg"
   xmlns="http://www.w3.org/2000/svg"
   xmlns:sodipodi="http://sodipodi.sourceforge.net/DTD/sodipodi-0.dtd"
   xmlns:inkscape="http://www.inkscape.org/namespaces/inkscape"
   width="1283.4429"
   height="293.67825"
   id="svg2"
   version="1.1"
   inkscape:version="0.48.5 r10040"
   sodipodi:docname="moody.svg">
  <defs
     id="defs4">
    <marker
       inkscape:stockid="Arrow1Lstart"
       orient="auto"
       refY="0"
       refX="0"
       id="Arrow1Lstart"
       style="overflow:visible">
      <path
         id="path5555"
         d="M 0,0 5,-5 -12.5,0 5,5 0,0 z"
         style="fill-rule:evenodd;stroke:#000000;stroke-width:1pt"
         transform="matrix(0.8,0,0,0.8,10,0)"
         inkscape:connector-curvature="0" />
    </marker>
    <linearGradient
       id="linearGradient5351">
      <stop
         style="stop-color:#800080;stop-opacity:1;"
         offset="0"
         id="stop5353" />
      <stop
         style="stop-color:#800080;stop-opacity:0;"
         offset="1"
         id="stop5355" />
    </linearGradient>
  </defs>
  <sodipodi:namedview
     id="base"
     pagecolor="#ffffff"
     bordercolor="#666666"
     borderopacity="1.0"
     inkscape:pageopacity="0.0"
     inkscape:pageshadow="2"
     inkscape:zoom="0.49497475"
     inkscape:cx="563.42386"
     inkscape:cy="-289.90373"
     inkscape:document-units="px"
     inkscape:current-layer="layer4"
     showgrid="false"
     showguides="true"
     showborder="true"
     inkscape:showpageshadow="true"
     borderlayer="false"
     objecttolerance="20"
     inkscape:window-width="1095"
     inkscape:window-height="1002"
     inkscape:window-x="0"
     inkscape:window-y="0"
     inkscape:window-maximized="0"
     fit-margin-top="0"
     fit-margin-left="0"
     fit-margin-right="0"
     fit-margin-bottom="0">
    <inkscape:grid
       type="xygrid"
       id="grid2993"
       empspacing="5"
       visible="true"
       enabled="true"
       snapvisiblegridlinesonly="true"
       originx="2.0376332e-008px"
       originy="-758.68392px" />
  </sodipodi:namedview>
  <metadata
     id="metadata7">
    <rdf:RDF>
      <cc:Work
         rdf:about="">
        <dc:format>image/svg+xml</dc:format>
        <dc:type
           rdf:resource="http://purl.org/dc/dcmitype/StillImage" />
        <dc:title />
      </cc:Work>
    </rdf:RDF>
  </metadata>
  <g
     inkscape:label="Top"
     inkscape:groupmode="layer"
     id="layer1"
     style="display:inline">
    <text
       xml:space="preserve"
       style="font-size:40px;font-style:normal;font-weight:normal;line-height:125%;letter-spacing:0px;word-spacing:0px;fill:#000000;fill-opacity:1;stroke:none;font-family:Sans"
       x="260.61935"
       y="557.38745"
       id="text2995"
       sodipodi:linespacing="125%"><tspan
         sodipodi:role="line"
         id="tspan2997"
         x="260.61935"
         y="557.38745" /></text>
    <g
       id="g6177"
       transform="translate(865.62856,-2.42807e-7)">
      <g
         id="g3003">
        <g
           transform="matrix(0.87775151,0,0,1.1392746,-7.8852527,-10.60032)"
           style="font-size:299.71102905px;font-style:normal;font-variant:normal;font-weight:bold;font-stretch:normal;line-height:125%;letter-spacing:0px;word-spacing:0px;fill:#800080;fill-opacity:1;stroke:none;display:inline;font-family:Source Code Pro;-inkscape-font-specification:Source Code Pro Bold"
           id="text2985-0-7">
          <path
             inkscape:connector-curvature="0"
             d="m 47.046279,224.50836 c -0.07499,15.93441 4.420611,27.07352 13.486822,33.41735 9.066045,6.34376 23.152268,9.39078 42.258709,9.14107 l 23.07745,0 0,-23.37716 -12.28799,0 c -12.15699,0.17481 -20.361471,-1.22382 -24.613453,-4.1959 -4.252206,-2.97211 -6.237763,-8.56664 -5.956678,-16.7836 0.06233,-7.97346 0.312084,-15.85325 0.749264,-23.63941 0.436966,-7.7861 0.686724,-16.19038 0.749272,-25.21286 0.08106,-11.20149 -2.254155,-19.44343 -7.005657,-24.72584 -4.751703,-5.28227 -12.406715,-8.7289 -22.96506,-10.3399 l 0,-1.19883 c 10.558345,-1.61084 18.213356,-5.05747 22.965055,-10.3399 4.751499,-5.28224 7.086718,-13.52418 7.005662,-24.72584 -0.06255,-8.778791 -0.312306,-17.145609 -0.749272,-25.100475 -0.43718,-7.954578 -0.686934,-15.871833 -0.749264,-23.751789 -0.281079,-8.216794 1.70448,-13.811322 5.956682,-16.783601 4.25198,-2.97191 12.456459,-4.370543 24.613449,-4.195901 l 12.28799,0 0,-23.3771591 -23.07745,0 C 83.685375,9.0690684 69.599152,12.116087 60.533101,18.459679 c -9.066217,6.343999 -13.56182,17.483105 -13.486822,33.417354 0.124812,10.152736 0.624324,18.994087 1.498536,26.52408 0.874069,7.530279 1.37358,15.77222 1.498535,24.725847 0.312128,5.47601 -2.485137,10.40868 -8.3918,14.79804 -5.906793,4.38956 -16.796143,6.84965 -32.6680819,7.38029 l 0,25.77482 c 15.8719449,0.5308 26.7612949,2.99089 32.6680819,7.38029 5.906657,4.38952 8.703922,9.32219 8.3918,14.79804 -0.124949,9.06617 -0.62446,17.30811 -1.498535,24.72583 -0.874218,7.41777 -1.37373,16.25913 -1.498536,26.52409 z"
             id="path3001-9-1"
             style="fill:#800080" />
          <path
             inkscape:connector-curvature="0"
             d="m 368.10286,243.68962 0,23.37716 23.07745,0 c 19.10626,0.24971 33.19249,-2.79731 42.25871,-9.14107 9.06603,-6.34383 13.56164,-17.48294 13.48682,-33.41735 -0.13747,-10.26497 -0.68693,-19.10632 -1.64839,-26.52409 -0.96167,-7.41771 -1.51113,-15.65965 -1.64838,-24.72583 -0.31855,-5.47585 2.4912,-10.40853 8.42926,-14.79805 5.93783,-4.3894 16.9146,-6.84949 32.93033,-7.38028 l 0,-25.77482 c -16.01574,-0.53064 -26.9925,-2.99073 -32.93033,-7.38029 -5.93806,-4.38936 -8.74781,-9.32203 -8.42926,-14.79804 0.13725,-8.953627 0.68671,-17.195568 1.64838,-24.725847 0.96145,-7.529993 1.51091,-16.371344 1.64839,-26.52408 0.0748,-15.934249 -4.42078,-27.073355 -13.48682,-33.417354 -9.06623,-6.343592 -23.15245,-9.3906106 -42.25871,-9.1410641 l -23.07745,0 0,23.3771591 12.28799,0 c 12.01321,-0.174636 20.13027,1.223996 24.35121,4.195901 4.2208,2.972273 6.19387,8.566801 5.91922,16.783601 -0.05,7.879956 -0.24983,15.797211 -0.59942,23.751789 -0.34973,7.954866 -0.54954,16.321684 -0.59941,25.100475 -0.1,11.20167 2.19778,19.4436 6.89326,24.72584 4.69533,5.28243 12.38781,8.72906 23.07746,10.3399 l 0,1.19883 c -10.68965,1.61101 -18.38213,5.05764 -23.07746,10.3399 -4.69548,5.2824 -6.99324,13.52434 -6.89326,24.72584 0.0499,9.02247 0.24968,17.42675 0.59941,25.21286 0.34958,7.78617 0.54939,15.66596 0.59942,23.63941 0.27466,8.21697 -1.69841,13.8115 -5.91922,16.7836 -4.22094,2.97207 -12.338,4.3707 -24.35121,4.1959 z"
             id="path3003-48-15"
             style="fill:#800080" />
        </g>
        <path
           inkscape:connector-curvature="0"
           id="path3136"
           d="m 208.90714,74.60194 c -39.75748,0 -72.25,32.49252 -72.25,72.25 0,39.75748 32.49252,72.25 72.25,72.25 39.75748,0 72.25,-32.49252 72.25,-72.25 0,-39.75748 -32.49252,-72.25 -72.25,-72.25 z m 0,24.5 c 26.51669,0 47.75,21.23331 47.75,47.75 0,26.51669 -21.23331,47.75 -47.75,47.75 -26.51669,0 -47.75,-21.23331 -47.75,-47.75 0,-26.51669 21.23331,-47.75 47.75,-47.75 z"
           style="font-size:medium;font-style:normal;font-variant:normal;font-weight:normal;font-stretch:normal;text-indent:0;text-align:start;text-decoration:none;line-height:normal;letter-spacing:normal;word-spacing:normal;text-transform:none;direction:ltr;block-progression:tb;writing-mode:lr-tb;text-anchor:start;baseline-shift:baseline;color:#000000;fill:#800080;fill-opacity:1;stroke:none;stroke-width:24.5;marker:none;visibility:visible;display:inline;overflow:visible;enable-background:accumulate;font-family:Sans;-inkscape-font-specification:Sans" />
      </g>
    </g>
  </g>
  <g
     inkscape:groupmode="layer"
     id="layer3"
     inkscape:label="Middle"
     style="display:inline">
    <g
       transform="matrix(0.87775151,0,0,1.1392746,424.92902,-10.60032)"
       style="font-size:299.71102905px;font-style:normal;font-variant:normal;font-weight:bold;font-stretch:normal;line-height:125%;letter-spacing:0px;word-spacing:0px;fill:#666666;fill-opacity:1;stroke:none;display:inline;font-family:Source Code Pro;-inkscape-font-specification:Source Code Pro Bold"
       id="text2985-0-8">
      <path
         inkscape:connector-curvature="0"
         d="m 47.046279,224.50836 c -0.07499,15.93441 4.420611,27.07352 13.486822,33.41735 9.066045,6.34376 23.152268,9.39078 42.258709,9.14107 l 23.07745,0 0,-23.37716 -12.28799,0 c -12.15699,0.17481 -20.361471,-1.22382 -24.613453,-4.1959 -4.252206,-2.97211 -6.237763,-8.56664 -5.956678,-16.7836 0.06233,-7.97346 0.312084,-15.85325 0.749264,-23.63941 0.436966,-7.7861 0.686724,-16.19038 0.749272,-25.21286 0.08106,-11.20149 -2.254155,-19.44343 -7.005657,-24.72584 -4.751703,-5.28227 -12.406715,-8.7289 -22.96506,-10.3399 l 0,-1.19883 c 10.558345,-1.61084 18.213356,-5.05747 22.965055,-10.3399 4.751499,-5.28224 7.086718,-13.52418 7.005662,-24.72584 -0.06255,-8.778791 -0.312306,-17.145609 -0.749272,-25.100475 -0.43718,-7.954578 -0.686934,-15.871833 -0.749264,-23.751789 -0.281079,-8.216794 1.70448,-13.811322 5.956682,-16.783601 4.25198,-2.97191 12.456459,-4.370543 24.613449,-4.195901 l 12.28799,0 0,-23.3771591 -23.07745,0 C 83.685375,9.0690684 69.599152,12.116087 60.533101,18.459679 c -9.066217,6.343999 -13.56182,17.483105 -13.486822,33.417354 0.124812,10.152736 0.624324,18.994087 1.498536,26.52408 0.874069,7.530279 1.37358,15.77222 1.498535,24.725847 0.312128,5.47601 -2.485137,10.40868 -8.3918,14.79804 -5.906793,4.38956 -16.796143,6.84965 -32.6680819,7.38029 l 0,25.77482 c 15.8719449,0.5308 26.7612949,2.99089 32.6680819,7.38029 5.906657,4.38952 8.703922,9.32219 8.3918,14.79804 -0.124949,9.06617 -0.62446,17.30811 -1.498535,24.72583 -0.874218,7.41777 -1.37373,16.25913 -1.498536,26.52409 z"
         id="path3001-9-2"
         style="fill:#666666" />
      <path
         inkscape:connector-curvature="0"
         d="m 368.10286,243.68962 0,23.37716 23.07745,0 c 19.10626,0.24971 33.19249,-2.79731 42.25871,-9.14107 9.06603,-6.34383 13.56164,-17.48294 13.48682,-33.41735 -0.13747,-10.26497 -0.68693,-19.10632 -1.64839,-26.52409 -0.96167,-7.41771 -1.51113,-15.65965 -1.64838,-24.72583 -0.31855,-5.47585 2.4912,-10.40853 8.42926,-14.79805 5.93783,-4.3894 16.9146,-6.84949 32.93033,-7.38028 l 0,-25.77482 c -16.01574,-0.53064 -26.9925,-2.99073 -32.93033,-7.38029 -5.93806,-4.38936 -8.74781,-9.32203 -8.42926,-14.79804 0.13725,-8.953627 0.68671,-17.195568 1.64838,-24.725847 0.96145,-7.529993 1.51091,-16.371344 1.64839,-26.52408 0.0748,-15.934249 -4.42078,-27.073355 -13.48682,-33.417354 -9.06623,-6.343592 -23.15245,-9.3906106 -42.25871,-9.1410641 l -23.07745,0 0,23.3771591 12.28799,0 c 12.01321,-0.174636 20.13027,1.223996 24.35121,4.195901 4.2208,2.972273 6.19387,8.566801 5.91922,16.783601 -0.05,7.879956 -0.24983,15.797211 -0.59942,23.751789 -0.34973,7.954866 -0.54954,16.321684 -0.59941,25.100475 -0.1,11.20167 2.19778,19.4436 6.89326,24.72584 4.69533,5.28243 12.38781,8.72906 23.07746,10.3399 l 0,1.19883 c -10.68965,1.61101 -18.38213,5.05764 -23.07746,10.3399 -4.69548,5.2824 -6.99324,13.52434 -6.89326,24.72584 0.0499,9.02247 0.24968,17.42675 0.59941,25.21286 0.34958,7.78617 0.54939,15.66596 0.59942,23.63941 0.27466,8.21697 -1.69841,13.8115 -5.91922,16.7836 -4.22094,2.97207 -12.338,4.3707 -24.35121,4.1959 z"
         id="path3003-48-4"
         style="fill:#666666" />
    </g>
  </g>
  <g
     inkscape:groupmode="layer"
     id="layer4"
     inkscape:label="Bottom"
     style="display:inline">
    <g
       transform="matrix(0.87775151,0,0,1.1392746,-7.8852527,-10.60032)"
       style="font-size:299.71102905px;font-style:normal;font-variant:normal;font-weight:bold;font-stretch:normal;line-height:125%;letter-spacing:0px;word-spacing:0px;fill:#cccccc;fill-opacity:1;stroke:none;display:inline;font-family:Source Code Pro;-inkscape-font-specification:Source Code Pro Bold"
       id="text2985-0-5">
      <path
         inkscape:connector-curvature="0"
         d="m 47.046279,224.50836 c -0.07499,15.93441 4.420611,27.07352 13.486822,33.41735 9.066045,6.34376 23.152268,9.39078 42.258709,9.14107 l 23.07745,0 0,-23.37716 -12.28799,0 c -12.15699,0.17481 -20.361471,-1.22382 -24.613453,-4.1959 -4.252206,-2.97211 -6.237763,-8.56664 -5.956678,-16.7836 0.06233,-7.97346 0.312084,-15.85325 0.749264,-23.63941 0.436966,-7.7861 0.686724,-16.19038 0.749272,-25.21286 0.08106,-11.20149 -2.254155,-19.44343 -7.005657,-24.72584 -4.751703,-5.28227 -12.406715,-8.7289 -22.96506,-10.3399 l 0,-1.19883 c 10.558345,-1.61084 18.213356,-5.05747 22.965055,-10.3399 4.751499,-5.28224 7.086718,-13.52418 7.005662,-24.72584 -0.06255,-8.778791 -0.312306,-17.145609 -0.749272,-25.100475 -0.43718,-7.954578 -0.686934,-15.871833 -0.749264,-23.751789 -0.281079,-8.216794 1.70448,-13.811322 5.956682,-16.783601 4.25198,-2.97191 12.456459,-4.370543 24.613449,-4.195901 l 12.28799,0 0,-23.3771591 -23.07745,0 C 83.685375,9.0690684 69.599152,12.116087 60.533101,18.459679 c -9.066217,6.343999 -13.56182,17.483105 -13.486822,33.417354 0.124812,10.152736 0.624324,18.994087 1.498536,26.52408 0.874069,7.530279 1.37358,15.77222 1.498535,24.725847 0.312128,5.47601 -2.485137,10.40868 -8.3918,14.79804 -5.906793,4.38956 -16.796143,6.84965 -32.6680819,7.38029 l 0,25.77482 c 15.8719449,0.5308 26.7612949,2.99089 32.6680819,7.38029 5.906657,4.38952 8.703922,9.32219 8.3918,14.79804 -0.124949,9.06617 -0.62446,17.30811 -1.498535,24.72583 -0.874218,7.41777 -1.37373,16.25913 -1.498536,26.52409 z"
         id="path3001-9-5"
         style="fill:#cccccc" />
      <path
         inkscape:connector-curvature="0"
         d="m 368.10286,243.68962 0,23.37716 23.07745,0 c 19.10626,0.24971 33.19249,-2.79731 42.25871,-9.14107 9.06603,-6.34383 13.56164,-17.48294 13.48682,-33.41735 -0.13747,-10.26497 -0.68693,-19.10632 -1.64839,-26.52409 -0.96167,-7.41771 -1.51113,-15.65965 -1.64838,-24.72583 -0.31855,-5.47585 2.4912,-10.40853 8.42926,-14.79805 5.93783,-4.3894 16.9146,-6.84949 32.93033,-7.38028 l 0,-25.77482 c -16.01574,-0.53064 -26.9925,-2.99073 -32.93033,-7.38029 -5.93806,-4.38936 -8.74781,-9.32203 -8.42926,-14.79804 0.13725,-8.953627 0.68671,-17.195568 1.64838,-24.725847 0.96145,-7.529993 1.51091,-16.371344 1.64839,-26.52408 0.0748,-15.934249 -4.42078,-27.073355 -13.48682,-33.417354 -9.06623,-6.343592 -23.15245,-9.3906106 -42.25871,-9.1410641 l -23.07745,0 0,23.3771591 12.28799,0 c 12.01321,-0.174636 20.13027,1.223996 24.35121,4.195901 4.2208,2.972273 6.19387,8.566801 5.91922,16.783601 -0.05,7.879956 -0.24983,15.797211 -0.59942,23.751789 -0.34973,7.954866 -0.54954,16.321684 -0.59941,25.100475 -0.1,11.20167 2.19778,19.4436 6.89326,24.72584 4.69533,5.28243 12.38781,8.72906 23.07746,10.3399 l 0,1.19883 c -10.68965,1.61101 -18.38213,5.05764 -23.07746,10.3399 -4.69548,5.2824 -6.99324,13.52434 -6.89326,24.72584 0.0499,9.02247 0.24968,17.42675 0.59941,25.21286 0.34958,7.78617 0.54939,15.66596 0.59942,23.63941 0.27466,8.21697 -1.69841,13.8115 -5.91922,16.7836 -4.22094,2.97207 -12.338,4.3707 -24.35121,4.1959 z"
         id="path3003-48-1"
         style="fill:#cccccc" />
    </g>
  </g>
</svg>
